<svg xmlns="http://www.w3.org/2000/svg" viewBox="0 -0.5 400 400" shape-rendering="crispEdges">
<metadata>Made with Pixels to Svg https://codepen.io/shshaw/pen/XbxvNj</metadata>
<path stroke="#e04018" d="M300 25h50M300 26h50M300 27h50M300 28h50M300 29h50M300 30h50M300 31h50M300 32h50M300 33h50M300 34h50M300 35h50M300 36h50M300 37h50M300 38h50M300 39h50M300 40h50M300 41h50M300 42h50M300 43h50M300 44h50M300 45h50M300 46h50M300 47h50M300 48h50M300 49h50M225 50h25M300 50h25M225 51h25M300 51h25M225 52h25M300 52h25M225 53h25M300 53h25M225 54h25M300 54h25M225 55h25M300 55h25M225 56h25M300 56h25M225 57h25M300 57h25M225 58h25M300 58h25M225 59h25M300 59h25M225 60h25M300 60h25M225 61h25M300 61h25M225 62h25M300 62h25M225 63h25M300 63h25M225 64h25M300 64h25M225 65h25M300 65h25M225 66h25M300 66h25M225 67h25M300 67h25M225 68h25M300 68h25M225 69h25M300 69h25M225 70h25M300 70h25M225 71h25M300 71h25M225 72h25M300 72h25M225 73h25M300 73h25M225 74h25M300 74h25M125 75h25M200 75h50M125 76h25M200 76h50M125 77h25M200 77h50M125 78h25M200 78h50M125 79h25M200 79h50M125 80h25M200 80h50M125 81h25M200 81h50M125 82h25M200 82h50M125 83h25M200 83h50M125 84h25M200 84h50M125 85h25M200 85h50M125 86h25M200 86h50M125 87h25M200 87h50M125 88h25M200 88h50M125 89h25M200 89h50M125 90h25M200 90h50M125 91h25M200 91h50M125 92h25M200 92h50M125 93h25M200 93h50M125 94h25M200 94h50M125 95h25M200 95h50M125 96h25M200 96h50M125 97h25M200 97h50M125 98h25M200 98h50M125 99h25M200 99h50M0 100h25M75 100h25M200 100h25M0 101h25M75 101h25M200 101h25M0 102h25M75 102h25M200 102h25M0 103h25M75 103h25M200 103h25M0 104h25M75 104h25M200 104h25M0 105h25M75 105h25M200 105h25M0 106h25M75 106h25M200 106h25M0 107h25M75 107h25M200 107h25M0 108h25M75 108h25M200 108h25M0 109h25M75 109h25M200 109h25M0 110h25M75 110h25M200 110h25M0 111h25M75 111h25M200 111h25M0 112h25M75 112h25M200 112h25M0 113h25M75 113h25M200 113h25M0 114h25M75 114h25M200 114h25M0 115h25M75 115h25M200 115h25M0 116h25M75 116h25M200 116h25M0 117h25M75 117h25M200 117h25M0 118h25M75 118h25M200 118h25M0 119h25M75 119h25M200 119h25M0 120h25M75 120h25M200 120h25M0 121h25M75 121h25M200 121h25M0 122h25M75 122h25M200 122h25M0 123h25M75 123h25M200 123h25M0 124h25M75 124h25M200 124h25M0 125h25M75 125h25M175 125h25M325 125h25M0 126h25M75 126h25M175 126h25M325 126h25M0 127h25M75 127h25M175 127h25M325 127h25M0 128h25M75 128h25M175 128h25M325 128h25M0 129h25M75 129h25M175 129h25M325 129h25M0 130h25M75 130h25M175 130h25M325 130h25M0 131h25M75 131h25M175 131h25M325 131h25M0 132h25M75 132h25M175 132h25M325 132h25M0 133h25M75 133h25M175 133h25M325 133h25M0 134h25M75 134h25M175 134h25M325 134h25M0 135h25M75 135h25M175 135h25M325 135h25M0 136h25M75 136h25M175 136h25M325 136h25M0 137h25M75 137h25M175 137h25M325 137h25M0 138h25M75 138h25M175 138h25M325 138h25M0 139h25M75 139h25M175 139h25M325 139h25M0 140h25M75 140h25M175 140h25M325 140h25M0 141h25M75 141h25M175 141h25M325 141h25M0 142h25M75 142h25M175 142h25M325 142h25M0 143h25M75 143h25M175 143h25M325 143h25M0 144h25M75 144h25M175 144h25M325 144h25M0 145h25M75 145h25M175 145h25M325 145h25M0 146h25M75 146h25M175 146h25M325 146h25M0 147h25M75 147h25M175 147h25M325 147h25M0 148h25M75 148h25M175 148h25M325 148h25M0 149h25M75 149h25M175 149h25M325 149h25M50 150h25M100 150h25M250 150h25M325 150h25M50 151h25M100 151h25M250 151h25M325 151h25M50 152h25M100 152h25M250 152h25M325 152h25M50 153h25M100 153h25M250 153h25M325 153h25M50 154h25M100 154h25M250 154h25M325 154h25M50 155h25M100 155h25M250 155h25M325 155h25M50 156h25M100 156h25M250 156h25M325 156h25M50 157h25M100 157h25M250 157h25M325 157h25M50 158h25M100 158h25M250 158h25M325 158h25M50 159h25M100 159h25M250 159h25M325 159h25M50 160h25M100 160h25M250 160h25M325 160h25M50 161h25M100 161h25M250 161h25M325 161h25M50 162h25M100 162h25M250 162h25M325 162h25M50 163h25M100 163h25M250 163h25M325 163h25M50 164h25M100 164h25M250 164h25M325 164h25M50 165h25M100 165h25M250 165h25M325 165h25M50 166h25M100 166h25M250 166h25M325 166h25M50 167h25M100 167h25M250 167h25M325 167h25M50 168h25M100 168h25M250 168h25M325 168h25M50 169h25M100 169h25M250 169h25M325 169h25M50 170h25M100 170h25M250 170h25M325 170h25M50 171h25M100 171h25M250 171h25M325 171h25M50 172h25M100 172h25M250 172h25M325 172h25M50 173h25M100 173h25M250 173h25M325 173h25M50 174h25M100 174h25M250 174h25M325 174h25M50 175h25M100 175h25M150 175h25M300 175h50M50 176h25M100 176h25M150 176h25M300 176h50M50 177h25M100 177h25M150 177h25M300 177h50M50 178h25M100 178h25M150 178h25M300 178h50M50 179h25M100 179h25M150 179h25M300 179h50M50 180h25M100 180h25M150 180h25M300 180h50M50 181h25M100 181h25M150 181h25M300 181h50M50 182h25M100 182h25M150 182h25M300 182h50M50 183h25M100 183h25M150 183h25M300 183h50M50 184h25M100 184h25M150 184h25M300 184h50M50 185h25M100 185h25M150 185h25M300 185h50M50 186h25M100 186h25M150 186h25M300 186h50M50 187h25M100 187h25M150 187h25M300 187h50M50 188h25M100 188h25M150 188h25M300 188h50M50 189h25M100 189h25M150 189h25M300 189h50M50 190h25M100 190h25M150 190h25M300 190h50M50 191h25M100 191h25M150 191h25M300 191h50M50 192h25M100 192h25M150 192h25M300 192h50M50 193h25M100 193h25M150 193h25M300 193h50M50 194h25M100 194h25M150 194h25M300 194h50M50 195h25M100 195h25M150 195h25M300 195h50M50 196h25M100 196h25M150 196h25M300 196h50M50 197h25M100 197h25M150 197h25M300 197h50M50 198h25M100 198h25M150 198h25M300 198h50M50 199h25M100 199h25M150 199h25M300 199h50M125 200h25M250 200h125M125 201h25M250 201h125M125 202h25M250 202h125M125 203h25M250 203h125M125 204h25M250 204h125M125 205h25M250 205h125M125 206h25M250 206h125M125 207h25M250 207h125M125 208h25M250 208h125M125 209h25M250 209h125M125 210h25M250 210h125M125 211h25M250 211h125M125 212h25M250 212h125M125 213h25M250 213h125M125 214h25M250 214h125M125 215h25M250 215h125M125 216h25M250 216h125M125 217h25M250 217h125M125 218h25M250 218h125M125 219h25M250 219h125M125 220h25M250 220h125M125 221h25M250 221h125M125 222h25M250 222h125M125 223h25M250 223h125M125 224h25M250 224h125M25 225h25M125 225h175M325 225h50M25 226h25M125 226h175M325 226h50M25 227h25M125 227h175M325 227h50M25 228h25M125 228h175M325 228h50M25 229h25M125 229h175M325 229h50M25 230h25M125 230h175M325 230h50M25 231h25M125 231h175M325 231h50M25 232h25M125 232h175M325 232h50M25 233h25M125 233h175M325 233h50M25 234h25M125 234h175M325 234h50M25 235h25M125 235h175M325 235h50M25 236h25M125 236h175M325 236h50M25 237h25M125 237h175M325 237h50M25 238h25M125 238h175M325 238h50M25 239h25M125 239h175M325 239h50M25 240h25M125 240h175M325 240h50M25 241h25M125 241h175M325 241h50M25 242h25M125 242h175M325 242h50M25 243h25M125 243h175M325 243h50M25 244h25M125 244h175M325 244h50M25 245h25M125 245h175M325 245h50M25 246h25M125 246h175M325 246h50M25 247h25M125 247h175M325 247h50M25 248h25M125 248h175M325 248h50M25 249h25M125 249h175M325 249h50M25 250h50M100 250h75M325 250h50M25 251h50M100 251h75M325 251h50M25 252h50M100 252h75M325 252h50M25 253h50M100 253h75M325 253h50M25 254h50M100 254h75M325 254h50M25 255h50M100 255h75M325 255h50M25 256h50M100 256h75M325 256h50M25 257h50M100 257h75M325 257h50M25 258h50M100 258h75M325 258h50M25 259h50M100 259h75M325 259h50M25 260h50M100 260h75M325 260h50M25 261h50M100 261h75M325 261h50M25 262h50M100 262h75M325 262h50M25 263h50M100 263h75M325 263h50M25 264h50M100 264h75M325 264h50M25 265h50M100 265h75M325 265h50M25 266h50M100 266h75M325 266h50M25 267h50M100 267h75M325 267h50M25 268h50M100 268h75M325 268h50M25 269h50M100 269h75M325 269h50M25 270h50M100 270h75M325 270h50M25 271h50M100 271h75M325 271h50M25 272h50M100 272h75M325 272h50M25 273h50M100 273h75M325 273h50M25 274h50M100 274h75M325 274h50M25 275h100M325 275h50M25 276h100M325 276h50M25 277h100M325 277h50M25 278h100M325 278h50M25 279h100M325 279h50M25 280h100M325 280h50M25 281h100M325 281h50M25 282h100M325 282h50M25 283h100M325 283h50M25 284h100M325 284h50M25 285h100M325 285h50M25 286h100M325 286h50M25 287h100M325 287h50M25 288h100M325 288h50M25 289h100M325 289h50M25 290h100M325 290h50M25 291h100M325 291h50M25 292h100M325 292h50M25 293h100M325 293h50M25 294h100M325 294h50M25 295h100M325 295h50M25 296h100M325 296h50M25 297h100M325 297h50M25 298h100M325 298h50M25 299h100M325 299h50M25 300h50M325 300h50M25 301h50M325 301h50M25 302h50M325 302h50M25 303h50M325 303h50M25 304h50M325 304h50M25 305h50M325 305h50M25 306h50M325 306h50M25 307h50M325 307h50M25 308h50M325 308h50M25 309h50M325 309h50M25 310h50M325 310h50M25 311h50M325 311h50M25 312h50M325 312h50M25 313h50M325 313h50M25 314h50M325 314h50M25 315h50M325 315h50M25 316h50M325 316h50M25 317h50M325 317h50M25 318h50M325 318h50M25 319h50M325 319h50M25 320h50M325 320h50M25 321h50M325 321h50M25 322h50M325 322h50M25 323h50M325 323h50M25 324h50M325 324h50M25 325h25M325 325h50M25 326h25M325 326h50M25 327h25M325 327h50M25 328h25M325 328h50M25 329h25M325 329h50M25 330h25M325 330h50M25 331h25M325 331h50M25 332h25M325 332h50M25 333h25M325 333h50M25 334h25M325 334h50M25 335h25M325 335h50M25 336h25M325 336h50M25 337h25M325 337h50M25 338h25M325 338h50M25 339h25M325 339h50M25 340h25M325 340h50M25 341h25M325 341h50M25 342h25M325 342h50M25 343h25M325 343h50M25 344h25M325 344h50M25 345h25M325 345h50M25 346h25M325 346h50M25 347h25M325 347h50M25 348h25M325 348h50M25 349h25M325 349h50M50 350h25M300 350h50M50 351h25M300 351h50M50 352h25M300 352h50M50 353h25M300 353h50M50 354h25M300 354h50M50 355h25M300 355h50M50 356h25M300 356h50M50 357h25M300 357h50M50 358h25M300 358h50M50 359h25M300 359h50M50 360h25M300 360h50M50 361h25M300 361h50M50 362h25M300 362h50M50 363h25M300 363h50M50 364h25M300 364h50M50 365h25M300 365h50M50 366h25M300 366h50M50 367h25M300 367h50M50 368h25M300 368h50M50 369h25M300 369h50M50 370h25M300 370h50M50 371h25M300 371h50M50 372h25M300 372h50M50 373h25M300 373h50M50 374h25M300 374h50M50 375h50M300 375h25M50 376h50M300 376h25M50 377h50M300 377h25M50 378h50M300 378h25M50 379h50M300 379h25M50 380h50M300 380h25M50 381h50M300 381h25M50 382h50M300 382h25M50 383h50M300 383h25M50 384h50M300 384h25M50 385h50M300 385h25M50 386h50M300 386h25M50 387h50M300 387h25M50 388h50M300 388h25M50 389h50M300 389h25M50 390h50M300 390h25M50 391h50M300 391h25M50 392h50M300 392h25M50 393h50M300 393h25M50 394h50M300 394h25M50 395h50M300 395h25M50 396h50M300 396h25M50 397h50M300 397h25M50 398h50M300 398h25M50 399h50M300 399h25" />
<path stroke="#ec7b2f" d="M225 100h25M225 101h25M225 102h25M225 103h25M225 104h25M225 105h25M225 106h25M225 107h25M225 108h25M225 109h25M225 110h25M225 111h25M225 112h25M225 113h25M225 114h25M225 115h25M225 116h25M225 117h25M225 118h25M225 119h25M225 120h25M225 121h25M225 122h25M225 123h25M225 124h25M200 125h50M200 126h50M200 127h50M200 128h50M200 129h50M200 130h50M200 131h50M200 132h50M200 133h50M200 134h50M200 135h50M200 136h50M200 137h50M200 138h50M200 139h50M200 140h50M200 141h50M200 142h50M200 143h50M200 144h50M200 145h50M200 146h50M200 147h50M200 148h50M200 149h50M75 150h25M175 150h25M75 151h25M175 151h25M75 152h25M175 152h25M75 153h25M175 153h25M75 154h25M175 154h25M75 155h25M175 155h25M75 156h25M175 156h25M75 157h25M175 157h25M75 158h25M175 158h25M75 159h25M175 159h25M75 160h25M175 160h25M75 161h25M175 161h25M75 162h25M175 162h25M75 163h25M175 163h25M75 164h25M175 164h25M75 165h25M175 165h25M75 166h25M175 166h25M75 167h25M175 167h25M75 168h25M175 168h25M75 169h25M175 169h25M75 170h25M175 170h25M75 171h25M175 171h25M75 172h25M175 172h25M75 173h25M175 173h25M75 174h25M175 174h25M75 175h25M175 175h25M225 175h50M75 176h25M175 176h25M225 176h50M75 177h25M175 177h25M225 177h50M75 178h25M175 178h25M225 178h50M75 179h25M175 179h25M225 179h50M75 180h25M175 180h25M225 180h50M75 181h25M175 181h25M225 181h50M75 182h25M175 182h25M225 182h50M75 183h25M175 183h25M225 183h50M75 184h25M175 184h25M225 184h50M75 185h25M175 185h25M225 185h50M75 186h25M175 186h25M225 186h50M75 187h25M175 187h25M225 187h50M75 188h25M175 188h25M225 188h50M75 189h25M175 189h25M225 189h50M75 190h25M175 190h25M225 190h50M75 191h25M175 191h25M225 191h50M75 192h25M175 192h25M225 192h50M75 193h25M175 193h25M225 193h50M75 194h25M175 194h25M225 194h50M75 195h25M175 195h25M225 195h50M75 196h25M175 196h25M225 196h50M75 197h25M175 197h25M225 197h50M75 198h25M175 198h25M225 198h50M75 199h25M175 199h25M225 199h50M50 200h75M150 200h100M50 201h75M150 201h100M50 202h75M150 202h100M50 203h75M150 203h100M50 204h75M150 204h100M50 205h75M150 205h100M50 206h75M150 206h100M50 207h75M150 207h100M50 208h75M150 208h100M50 209h75M150 209h100M50 210h75M150 210h100M50 211h75M150 211h100M50 212h75M150 212h100M50 213h75M150 213h100M50 214h75M150 214h100M50 215h75M150 215h100M50 216h75M150 216h100M50 217h75M150 217h100M50 218h75M150 218h100M50 219h75M150 219h100M50 220h75M150 220h100M50 221h75M150 221h100M50 222h75M150 222h100M50 223h75M150 223h100M50 224h75M150 224h100M50 225h75M300 225h25M50 226h75M300 226h25M50 227h75M300 227h25M50 228h75M300 228h25M50 229h75M300 229h25M50 230h75M300 230h25M50 231h75M300 231h25M50 232h75M300 232h25M50 233h75M300 233h25M50 234h75M300 234h25M50 235h75M300 235h25M50 236h75M300 236h25M50 237h75M300 237h25M50 238h75M300 238h25M50 239h75M300 239h25M50 240h75M300 240h25M50 241h75M300 241h25M50 242h75M300 242h25M50 243h75M300 243h25M50 244h75M300 244h25M50 245h75M300 245h25M50 246h75M300 246h25M50 247h75M300 247h25M50 248h75M300 248h25M50 249h75M300 249h25M75 250h25M175 250h150M75 251h25M175 251h150M75 252h25M175 252h150M75 253h25M175 253h150M75 254h25M175 254h150M75 255h25M175 255h150M75 256h25M175 256h150M75 257h25M175 257h150M75 258h25M175 258h150M75 259h25M175 259h150M75 260h25M175 260h150M75 261h25M175 261h150M75 262h25M175 262h150M75 263h25M175 263h150M75 264h25M175 264h150M75 265h25M175 265h150M75 266h25M175 266h150M75 267h25M175 267h150M75 268h25M175 268h150M75 269h25M175 269h150M75 270h25M175 270h150M75 271h25M175 271h150M75 272h25M175 272h150M75 273h25M175 273h150M75 274h25M175 274h150M125 275h125M300 275h25M125 276h125M300 276h25M125 277h125M300 277h25M125 278h125M300 278h25M125 279h125M300 279h25M125 280h125M300 280h25M125 281h125M300 281h25M125 282h125M300 282h25M125 283h125M300 283h25M125 284h125M300 284h25M125 285h125M300 285h25M125 286h125M300 286h25M125 287h125M300 287h25M125 288h125M300 288h25M125 289h125M300 289h25M125 290h125M300 290h25M125 291h125M300 291h25M125 292h125M300 292h25M125 293h125M300 293h25M125 294h125M300 294h25M125 295h125M300 295h25M125 296h125M300 296h25M125 297h125M300 297h25M125 298h125M300 298h25M125 299h125M300 299h25M75 300h75M275 300h50M75 301h75M275 301h50M75 302h75M275 302h50M75 303h75M275 303h50M75 304h75M275 304h50M75 305h75M275 305h50M75 306h75M275 306h50M75 307h75M275 307h50M75 308h75M275 308h50M75 309h75M275 309h50M75 310h75M275 310h50M75 311h75M275 311h50M75 312h75M275 312h50M75 313h75M275 313h50M75 314h75M275 314h50M75 315h75M275 315h50M75 316h75M275 316h50M75 317h75M275 317h50M75 318h75M275 318h50M75 319h75M275 319h50M75 320h75M275 320h50M75 321h75M275 321h50M75 322h75M275 322h50M75 323h75M275 323h50M75 324h75M275 324h50M50 325h75M275 325h50M50 326h75M275 326h50M50 327h75M275 327h50M50 328h75M275 328h50M50 329h75M275 329h50M50 330h75M275 330h50M50 331h75M275 331h50M50 332h75M275 332h50M50 333h75M275 333h50M50 334h75M275 334h50M50 335h75M275 335h50M50 336h75M275 336h50M50 337h75M275 337h50M50 338h75M275 338h50M50 339h75M275 339h50M50 340h75M275 340h50M50 341h75M275 341h50M50 342h75M275 342h50M50 343h75M275 343h50M50 344h75M275 344h50M50 345h75M275 345h50M50 346h75M275 346h50M50 347h75M275 347h50M50 348h75M275 348h50M50 349h75M275 349h50M75 350h25M275 350h25M75 351h25M275 351h25M75 352h25M275 352h25M75 353h25M275 353h25M75 354h25M275 354h25M75 355h25M275 355h25M75 356h25M275 356h25M75 357h25M275 357h25M75 358h25M275 358h25M75 359h25M275 359h25M75 360h25M275 360h25M75 361h25M275 361h25M75 362h25M275 362h25M75 363h25M275 363h25M75 364h25M275 364h25M75 365h25M275 365h25M75 366h25M275 366h25M75 367h25M275 367h25M75 368h25M275 368h25M75 369h25M275 369h25M75 370h25M275 370h25M75 371h25M275 371h25M75 372h25M275 372h25M75 373h25M275 373h25M75 374h25M275 374h25M100 375h25M275 375h25M100 376h25M275 376h25M100 377h25M275 377h25M100 378h25M275 378h25M100 379h25M275 379h25M100 380h25M275 380h25M100 381h25M275 381h25M100 382h25M275 382h25M100 383h25M275 383h25M100 384h25M275 384h25M100 385h25M275 385h25M100 386h25M275 386h25M100 387h25M275 387h25M100 388h25M275 388h25M100 389h25M275 389h25M100 390h25M275 390h25M100 391h25M275 391h25M100 392h25M275 392h25M100 393h25M275 393h25M100 394h25M275 394h25M100 395h25M275 395h25M100 396h25M275 396h25M100 397h25M275 397h25M100 398h25M275 398h25M100 399h25M275 399h25" />
<path stroke="#fced7a" d="M200 150h50M200 151h50M200 152h50M200 153h50M200 154h50M200 155h50M200 156h50M200 157h50M200 158h50M200 159h50M200 160h50M200 161h50M200 162h50M200 163h50M200 164h50M200 165h50M200 166h50M200 167h50M200 168h50M200 169h50M200 170h50M200 171h50M200 172h50M200 173h50M200 174h50M200 175h25M200 176h25M200 177h25M200 178h25M200 179h25M200 180h25M200 181h25M200 182h25M200 183h25M200 184h25M200 185h25M200 186h25M200 187h25M200 188h25M200 189h25M200 190h25M200 191h25M200 192h25M200 193h25M200 194h25M200 195h25M200 196h25M200 197h25M200 198h25M200 199h25M250 275h50M250 276h50M250 277h50M250 278h50M250 279h50M250 280h50M250 281h50M250 282h50M250 283h50M250 284h50M250 285h50M250 286h50M250 287h50M250 288h50M250 289h50M250 290h50M250 291h50M250 292h50M250 293h50M250 294h50M250 295h50M250 296h50M250 297h50M250 298h50M250 299h50M150 300h50M250 300h25M150 301h50M250 301h25M150 302h50M250 302h25M150 303h50M250 303h25M150 304h50M250 304h25M150 305h50M250 305h25M150 306h50M250 306h25M150 307h50M250 307h25M150 308h50M250 308h25M150 309h50M250 309h25M150 310h50M250 310h25M150 311h50M250 311h25M150 312h50M250 312h25M150 313h50M250 313h25M150 314h50M250 314h25M150 315h50M250 315h25M150 316h50M250 316h25M150 317h50M250 317h25M150 318h50M250 318h25M150 319h50M250 319h25M150 320h50M250 320h25M150 321h50M250 321h25M150 322h50M250 322h25M150 323h50M250 323h25M150 324h50M250 324h25M100 350h25M100 351h25M100 352h25M100 353h25M100 354h25M100 355h25M100 356h25M100 357h25M100 358h25M100 359h25M100 360h25M100 361h25M100 362h25M100 363h25M100 364h25M100 365h25M100 366h25M100 367h25M100 368h25M100 369h25M100 370h25M100 371h25M100 372h25M100 373h25M100 374h25M250 375h25M250 376h25M250 377h25M250 378h25M250 379h25M250 380h25M250 381h25M250 382h25M250 383h25M250 384h25M250 385h25M250 386h25M250 387h25M250 388h25M250 389h25M250 390h25M250 391h25M250 392h25M250 393h25M250 394h25M250 395h25M250 396h25M250 397h25M250 398h25M250 399h25" />
<path stroke="#ffffff" d="M200 300h50M200 301h50M200 302h50M200 303h50M200 304h50M200 305h50M200 306h50M200 307h50M200 308h50M200 309h50M200 310h50M200 311h50M200 312h50M200 313h50M200 314h50M200 315h50M200 316h50M200 317h50M200 318h50M200 319h50M200 320h50M200 321h50M200 322h50M200 323h50M200 324h50M125 325h150M125 326h150M125 327h150M125 328h150M125 329h150M125 330h150M125 331h150M125 332h150M125 333h150M125 334h150M125 335h150M125 336h150M125 337h150M125 338h150M125 339h150M125 340h150M125 341h150M125 342h150M125 343h150M125 344h150M125 345h150M125 346h150M125 347h150M125 348h150M125 349h150M125 350h150M125 351h150M125 352h150M125 353h150M125 354h150M125 355h150M125 356h150M125 357h150M125 358h150M125 359h150M125 360h150M125 361h150M125 362h150M125 363h150M125 364h150M125 365h150M125 366h150M125 367h150M125 368h150M125 369h150M125 370h150M125 371h150M125 372h150M125 373h150M125 374h150M125 375h125M125 376h125M125 377h125M125 378h125M125 379h125M125 380h125M125 381h125M125 382h125M125 383h125M125 384h125M125 385h125M125 386h125M125 387h125M125 388h125M125 389h125M125 390h125M125 391h125M125 392h125M125 393h125M125 394h125M125 395h125M125 396h125M125 397h125M125 398h125M125 399h125" />
</svg>