<svg xmlns="http://www.w3.org/2000/svg" viewBox="0 -0.5 16 16" shape-rendering="crispEdges">
<metadata>Made with Pixels to Svg https://codepen.io/shshaw/pen/XbxvNj</metadata>
<path stroke="#2f3699" d="M4 0h8M2 1h2M12 1h2M1 2h1M14 2h1M1 3h1M14 3h1M0 4h1M15 4h1M0 5h1M15 5h1M0 6h1M15 6h1M0 7h1M15 7h1M0 8h1M15 8h1M0 9h1M15 9h1M0 10h1M15 10h1M0 11h1M15 11h1M1 12h1M14 12h1M1 13h1M14 13h1M2 14h2M12 14h2M4 15h8" />
<path stroke="#4d6df3" d="M4 1h8M2 2h12M2 3h12M1 4h14M1 5h14M1 6h14M1 7h14M1 8h14M1 9h14M1 10h14M1 11h14M2 12h12M2 13h12M4 14h8" />
</svg>