<svg xmlns="http://www.w3.org/2000/svg" viewBox="0 -0.5 16 16" shape-rendering="crispEdges">
<metadata>Made with Pixels to Svg https://codepen.io/shshaw/pen/XbxvNj</metadata>
<path stroke="#000000" d="M7 1h3M6 2h1M10 2h1M5 3h1M10 3h1M4 4h1M10 4h1M4 5h1M10 5h1M5 6h2M10 6h1M6 7h1M10 7h1M6 8h1M10 8h1M5 9h2M10 9h2M4 10h1M12 10h1M4 11h1M12 11h1M5 12h7" />
<path stroke="#ffffff" d="M7 2h2M6 3h3M5 4h4M5 5h4M7 6h2M7 7h2M7 8h2M7 9h2M5 10h6M5 11h6" />
<path stroke="#b4b4b4" d="M9 2h1M9 3h1M9 4h1M9 5h1M9 6h1M9 7h1M9 8h1M9 9h1M11 10h1M11 11h1" />
</svg>