<svg xmlns="http://www.w3.org/2000/svg" viewBox="0 -0.5 16 16" shape-rendering="crispEdges">
<metadata>Made with Pixels to Svg https://codepen.io/shshaw/pen/XbxvNj</metadata>
<path stroke="#000000" d="M5 2h6M4 3h1M11 3h1M3 4h1M12 4h1M3 5h1M7 5h2M12 5h1M3 6h1M7 6h2M12 6h1M4 7h4M12 7h1M6 8h1M11 8h1M5 9h1M10 9h1M4 10h1M9 10h3M3 11h1M12 11h1M3 12h1M12 12h1M4 13h8" />
<path stroke="#ffffff" d="M5 3h5M4 4h7M4 5h2M9 5h2M4 6h2M9 6h2M8 7h3M7 8h3M6 9h3M5 10h3M4 11h7M4 12h7" />
<path stroke="#b4b4b4" d="M10 3h1M11 4h1M6 5h1M11 5h1M6 6h1M11 6h1M11 7h1M10 8h1M9 9h1M8 10h1M11 11h1M11 12h1" />
</svg>