<svg xmlns="http://www.w3.org/2000/svg" viewBox="0 -0.5 16 16" shape-rendering="crispEdges">
<metadata>Made with Pixels to Svg https://codepen.io/shshaw/pen/XbxvNj</metadata>
<path stroke="#000000" d="M6 2h6M5 3h1M12 3h1M4 4h1M12 4h1M4 5h1M12 5h1M3 6h1M12 6h1M3 7h1M8 7h1M12 7h1M3 8h1M8 8h1M12 8h1M2 9h1M13 9h1M2 10h1M13 10h1M3 11h6M12 11h1M8 12h1M12 12h1M9 13h3" />
<path stroke="#ffffff" d="M6 3h5M5 4h6M5 5h3M9 5h2M4 6h4M9 6h2M4 7h3M9 7h2M4 8h3M9 8h2M3 9h9M3 10h9M9 11h2M9 12h2" />
<path stroke="#b4b4b4" d="M11 3h1M11 4h1M8 5h1M11 5h1M8 6h1M11 6h1M7 7h1M11 7h1M7 8h1M11 8h1M12 9h1M12 10h1M11 11h1M11 12h1" />
</svg>