<svg xmlns="http://www.w3.org/2000/svg" viewBox="0 -0.5 16 16" shape-rendering="crispEdges">
<metadata>Made with Pixels to Svg https://codepen.io/shshaw/pen/XbxvNj</metadata>
<path stroke="#000000" d="M3 2h9M2 3h1M12 3h1M2 4h1M12 4h1M2 5h1M6 5h5M2 6h1M11 6h1M2 7h1M12 7h1M3 8h5M12 8h1M3 9h3M7 9h1M12 9h1M2 10h1M6 10h2M12 10h1M2 11h1M12 11h1M3 12h1M11 12h1M4 13h7" />
<path stroke="#ffffff" d="M3 3h8M3 4h8M3 5h2M3 6h7M3 7h8M8 8h3M8 9h3M3 10h2M8 10h3M3 11h8M4 12h6" />
<path stroke="#b4b4b4" d="M11 3h1M11 4h1M5 5h1M10 6h1M11 7h1M11 8h1M11 9h1M5 10h1M11 10h1M11 11h1M10 12h1" />
</svg>