<svg xmlns="http://www.w3.org/2000/svg" viewBox="0 -0.5 16 16" shape-rendering="crispEdges">
<metadata>Made with Pixels to Svg https://codepen.io/shshaw/pen/XbxvNj</metadata>
<path stroke="#000000" d="M5 2h6M4 3h1M11 3h1M3 4h1M12 4h1M3 5h1M7 5h2M12 5h1M3 6h1M7 6h5M3 7h1M11 7h1M3 8h1M12 8h1M3 9h1M7 9h2M12 9h1M3 10h1M7 10h2M12 10h1M3 11h1M12 11h1M3 12h1M12 12h1M4 13h1M11 13h1M5 14h6" />
<path stroke="#ffffff" d="M5 3h5M4 4h7M4 5h2M9 5h2M4 6h2M4 7h6M4 8h7M4 9h2M9 9h2M4 10h2M9 10h2M4 11h7M4 12h7M5 13h5" />
<path stroke="#b4b4b4" d="M10 3h1M11 4h1M6 5h1M11 5h1M6 6h1M10 7h1M11 8h1M6 9h1M11 9h1M6 10h1M11 10h1M11 11h1M11 12h1M10 13h1" />
</svg>