<svg xmlns="http://www.w3.org/2000/svg" viewBox="0 -0.5 16 16" shape-rendering="crispEdges">
<metadata>Made with Pixels to Svg https://codepen.io/shshaw/pen/XbxvNj</metadata>
<path stroke="#000000" d="M4 3h6M3 4h1M10 4h3M1 5h2M13 5h2M0 6h1M15 6h1M0 7h1M0 8h1M15 8h1M1 9h1M15 9h1M2 10h5M13 10h2M7 11h6" />
<path stroke="#c2c2c2" d="M4 4h6M3 5h1M10 5h3M14 6h1M14 8h1M2 9h1M14 9h1M7 10h6" />
<path stroke="#ffffff" d="M4 5h6M1 6h13M1 7h14M1 8h1M3 8h11M3 9h11" />
<path stroke="#332723" d="M15 7h1M2 8h1" />
</svg>