<svg xmlns="http://www.w3.org/2000/svg" viewBox="0 -0.5 16 16" shape-rendering="crispEdges">
<metadata>Made with Pixels to Svg https://codepen.io/shshaw/pen/XbxvNj</metadata>
<path stroke="#332723" d="M5 4h3M2 5h3M8 5h2M1 6h1M10 6h2M0 7h1M12 7h3M0 8h1M15 8h1M0 9h1M15 9h1M1 10h2M15 10h1M3 11h2M14 11h1M5 12h4M14 12h1M9 13h5" />
<path stroke="#c2c2c2" d="M5 5h3M8 6h2M10 7h2M13 8h2M1 9h1M14 9h1M3 10h1M14 10h1M5 11h2M9 12h5" />
<path stroke="#ffffff" d="M2 6h6M1 7h9M1 8h12M2 9h12M4 10h10M7 11h7" />
</svg>