<svg xmlns="http://www.w3.org/2000/svg" viewBox="0 -0.5 16 16" shape-rendering="crispEdges">
<metadata>Made with Pixels to Svg https://codepen.io/shshaw/pen/XbxvNj</metadata>
<path stroke="#000000" d="M8 0h6M7 1h1M14 1h1M6 2h1M13 2h2M1 3h2M4 3h3M12 3h1M15 3h1M0 4h1M3 4h1M5 4h1M7 4h1M9 4h5M0 5h2M3 5h1M6 5h1M12 5h4M1 6h3M6 6h1M13 6h1M1 7h1M3 7h1M6 7h1M13 7h1M1 8h1M3 8h1M6 8h1M12 8h2M1 9h1M3 9h1M5 9h2M14 9h1M1 10h1M3 10h2M13 10h2M1 11h1M3 11h1M15 11h1M1 12h1M3 12h1M15 12h1M1 13h1M3 13h3M13 13h1M15 13h1M1 14h1M3 14h1M6 14h2M10 14h2M14 14h1M1 15h1M3 15h1M5 15h1M8 15h2M12 15h4" />
<path stroke="#ed1c24" d="M8 1h2M7 2h1M12 9h1M5 10h1M11 10h1M4 11h1" />
<path stroke="#9c5a3c" d="M10 1h2M8 2h2M7 3h1M9 3h1M13 9h1M12 10h1M11 11h1M11 12h1M10 13h2" />
<path stroke="#990030" d="M12 1h2M10 2h3M8 3h1M10 3h2M7 11h1M5 12h1M8 12h1M10 12h1M6 13h1M12 13h1M14 13h1M9 14h1M12 14h2" />
<path stroke="#6e5b53" d="M1 4h1M2 5h1M2 7h1" />
<path stroke="#523d35" d="M2 4h1M2 10h1M10 11h1M12 11h1M4 12h1M9 13h1M7 15h1M11 15h1" />
<path stroke="#dbdbdb" d="M6 4h1M8 4h1M7 5h1M10 5h1M12 6h1M8 8h2M11 8h1M7 9h1M10 9h1M8 10h2M9 11h1" />
<path stroke="#ffa3b1" d="M8 5h2M8 6h2M11 6h1M8 7h2M11 7h1M7 8h1M10 8h1M2 11h1M12 12h1" />
<path stroke="#c2c2c2" d="M11 5h1M12 7h1M11 9h1M7 10h1M10 10h1M8 11h1M9 12h1" />
<path stroke="#332723" d="M7 6h1M10 6h1M7 7h1M10 7h1M2 13h1M2 14h1M2 15h1" />
<path stroke="#695249" d="M2 8h1M2 9h1M6 15h1M10 15h1" />
<path stroke="#ff7e00" d="M8 9h2" />
<path stroke="#e02f38" d="M6 10h1M5 11h2M13 11h2M6 12h2M13 12h2M7 13h2M8 14h1" />
<path stroke="#3d312d" d="M2 12h1" />
</svg>