<svg xmlns="http://www.w3.org/2000/svg" viewBox="0 -0.5 16 16" shape-rendering="crispEdges">
<metadata>Made with Pixels to Svg https://codepen.io/shshaw/pen/XbxvNj</metadata>
<path stroke="#000000" d="M2 0h6M1 1h1M8 1h1M1 2h2M9 2h1M0 3h1M3 3h1M9 3h3M13 3h2M2 4h5M8 4h1M10 4h1M12 4h1M15 4h1M0 5h4M9 5h1M12 5h1M14 5h2M2 6h1M9 6h1M12 6h3M2 7h1M9 7h1M12 7h1M14 7h1M2 8h2M9 8h1M12 8h1M14 8h1M1 9h1M9 9h2M12 9h1M14 9h1M1 10h2M11 10h2M14 10h1M0 11h1M12 11h1M14 11h1M0 12h1M12 12h1M14 12h1M0 13h1M2 13h1M10 13h3M14 13h1M1 14h1M4 14h2M8 14h2M12 14h1M14 14h1M0 15h4M6 15h2M10 15h1M12 15h1M14 15h1" />
<path stroke="#2f3699" d="M2 1h2M3 2h3M4 3h2M7 3h1M8 11h1M5 12h1M7 12h1M10 12h1M1 13h1M3 13h1M9 13h1M2 14h2M6 14h1" />
<path stroke="#546d8e" d="M4 1h2M6 2h2M6 3h1M8 3h1M2 9h1M3 10h1M4 11h1M4 12h1M4 13h2" />
<path stroke="#709ad1" d="M6 1h2M8 2h1M3 9h1M4 10h1M10 10h1M11 11h1" />
<path stroke="#dbdbdb" d="M7 4h1M9 4h1M5 5h1M8 5h1M3 6h1M4 8h1M6 8h2M5 9h1M8 9h1M6 10h2M6 11h1" />
<path stroke="#523d35" d="M13 4h1M13 10h1M4 15h1M8 15h1" />
<path stroke="#6e5b53" d="M14 4h1M13 5h1M13 7h1" />
<path stroke="#c2c2c2" d="M4 5h1M3 7h1M4 9h1M5 10h1M8 10h1M7 11h1M6 12h1" />
<path stroke="#ffa3b1" d="M6 5h2M4 6h1M6 6h2M4 7h1M6 7h2M5 8h1M8 8h1M13 11h1M3 12h1" />
<path stroke="#332723" d="M5 6h1M8 6h1M5 7h1M8 7h1M13 13h1M13 14h1M13 15h1" />
<path stroke="#695249" d="M13 8h1M13 9h1M5 15h1M9 15h1" />
<path stroke="#ff7e00" d="M6 9h2" />
<path stroke="#4d6df3" d="M9 10h1M1 11h2M9 11h2M1 12h2M8 12h2M7 13h2M7 14h1" />
<path stroke="#3b43ad" d="M3 11h1M5 11h1M11 12h1M6 13h1" />
<path stroke="#3d312d" d="M13 12h1" />
</svg>